<svg xmlns="http://www.w3.org/2000/svg" viewBox="0 0 175 134" fill="#C96C18" style="color:#676464">
<title>CSAIL</title>
<g id="logo">
	<g id="text">
		<path d="M69.5,133.8c-3,0-5.3-1.1-7.6-3.5c-1.6-1.6-2.8-4.8-2.8-8.3c0-4.1,1.7-7.8,4.8-10c1.8-1.3,3.8-2.1,6-2.1
			s4.2,0.6,6.2,1.8l-1.7,4.9c-1.5-0.8-2.9-1.2-4.3-1.2c-3,0-5.1,2.5-5.1,6.5s2.2,6.6,5.2,6.6c1.7,0,3.2-0.6,5-1.8l1.1,4.7
			C74.3,133,72.2,133.8,69.5,133.8z"/>
		<path d="M101.6,126.8c0,4.1-3.2,7-8.1,7c-3.4,0-6-1.6-7.1-4.1l3.6-3.2c1.2,1.7,2.4,2.6,3.8,2.6c1.5,0,2.4-0.8,2.4-2.1
			c0-1.4-1-1.6-2.5-2.2l-1.5-0.6c-3.4-1.3-5.2-4-5.2-7.3c0-4,3.1-6.8,7.7-6.8c2.9,0,5.1,1.1,6.4,1.9l-1.8,4.9
			c-1.8-1.2-3.3-1.8-4.6-1.8c-1.7,0-2.5,0.6-2.5,1.7c0,1,0.8,1.4,2.2,2l1.6,0.6C99.7,120.8,101.6,123.2,101.6,126.8z"/>
		<path d="M117.3,128.7l-1.6,4.6H110l8.3-22.8h4.8l8.3,22.8h-5.7l-1.6-4.6H117.3z M122.9,124.9l-0.6-1.9
			c-0.2-0.5-0.7-2.3-1.6-5.5c-0.8,3.2-1.3,5.1-1.5,5.6l-0.6,1.8H122.9z"/>
		<path d="M142.4,133.3v-22.8h5.5v22.8H142.4z"/>
		<path d="M161.5,133.3v-22.8h5.6v18.3h7.6v4.6h-13.2V133.3z"/>
	</g>
	<g id="shape">
		<path fill="currentColor" d="M143.5,90l2-41.8l-9.6,3.1l1.1-36.1l-20.7,8.4l1.2,21.5l-8.9-1.5l0.6-19.6l0.1-0.2l4.4-1.9L113,7.5
			c-4.8-3.4-11.3-5.1-19.2-5.1c-4,0-8.2,0.4-12.6,1.3l-0.5,10.7l3.9,0.3l1.5,35.2h-0.3c-2.9,0-5.9,0-8.9-0.1l-0.3,0l1.5-33.1
			l-23-1.7l-0.6,15.7l-5.3-0.5L47.9,4.8L24.6,5.8L24,28.1l6.1-1l-0.3,27.5v0.3l-8.9-2.4l0.6-21.4l-9.9,1.7l-0.1,16l-8.7-0.7
			l3.5,41.6l-2.4,0.3L0.1,45.6l8.9,0.6l0.1-15.4l12.3-2.1l0.8-25L50,2.2l1.4,25.6l0.7,0.1c0.2-3.4,0.3-6.8,0.4-10.1
			c0.1-1.7,0.1-3.5,0.2-5.2l0-0.3l25.5,1.8l0.6-12.4l0.2,0c5.2-1.1,10.2-1.7,14.8-1.7c8.9,0,16.1,2.1,21.3,6.1l0.1,0.1l0.9,14.8
			l23.3-9.4l-1.1,36.3l9.6-3.2l-0.1,5.7l-1.9,39.8L143.5,90z M27.4,51.8L27.6,30c-0.6,0.1-1.1,0.2-1.7,0.3c-0.7,0.1-1.4,0.2-2.1,0.4
			l-0.6,20L27.4,51.8z M83.6,47.3l-1.4-30.4c-0.4,0-0.8-0.1-1.2-0.2c-0.1,0-0.3-0.1-0.4-0.1l-1.5,30.6L83.6,47.3z M115.1,42.2
			L114,24.6l-2.3,1l-0.5,15.9L115.1,42.2z"/>
		<path d="M18.2,104.7L19.1,90L3.9,89.7l-0.3-2.3l15.5,0.2l1.2-17.7l0.1-0.1c4.7-2,9.8-3.1,14.7-3.1
			c1.3,0,2.6,0.1,3.9,0.2l-1-23.2l21-4.5V44l-0.8,39.9l5.6,0.1l6.9-24.3l13.3-0.6l1.7-7.1l13.5-0.6l0.5,24.4
			c1.3-0.1,2.7-0.1,4.1-0.1c1.4,0,2.8,0,4.1,0.1l-1.2-16.4l25.9-1h0.4L130.2,90l15.8-2.2l-0.3,2.1l-18.3,2.8l3-32l-21.1,0.8l1,14.2
			c4.5,0.6,8.6,1.6,12.5,3.1l0.2,0.1V79c0,2.6,0.4,4.9,0.8,7.2l0,0.3l-14.9,1.5l-0.7-9.9c-1.2-0.2-2.6-0.2-4.1-0.2
			c-1.2,0-2.6,0.1-4.1,0.2l0.3,16.6H65.5l0-0.3c0.1-5.3,5.9-8.9,9.3-11.1c6.4-3.8,14-6.2,22.5-7.3L97,53.8l-9.2,0.5L86,61.3
			l-13.4,0.5l-6.9,24.4h-7.4l-0.2,17l-0.2,0.1l-39.2,1.3H18.2z M21.5,90c-0.3,4.1-0.6,8.2-0.8,12.2l34.9-1.2l0.3-14.8l-8.2-0.1
			l0.2,4.4L21.5,90z M97.7,92.2l-0.3-13.9c-6.9,0.9-13.2,2.8-18.7,5.5c-3.5,1.9-7.8,4.3-10.2,8.3H97.7z M45.4,87.9l-0.1-1.8L40.2,86
			l-0.8-16.6c-1.3-0.2-2.6-0.2-3.9-0.2c-4.1,0-8.4,0.8-12.8,2.3l-1,16L45.4,87.9z M111.1,85.4l9.9-1l-0.5-3.8
			c-3.2-1.2-6.6-1.9-10-2.2L111.1,85.4z M56,83.8l0.8-38.2l-0.1-3.3l-16.1,3.3l1,20.5l0.2,1.2c2.1,0.5,3.6,1,4.9,1.7l0.1,0.1
			l0.9,14.7H56z M42.4,83.8c0.8,0,1.8,0,2.7-0.1l-0.8-13c-0.9-0.3-1.7-0.6-2.6-0.8L42.4,83.8z"/>
	</g>
</g>
</svg>
