<svg xmlns="http://www.w3.org/2000/svg" xmlns:xlink="http://www.w3.org/1999/xlink" viewBox="0 0 253 343" version="1.1">
    <title>Gopher</title>
    <g id="Page-1" stroke="none" stroke-width="1" fill="none" fill-rule="evenodd">
        <g id="Artboard-3">
            <g id="Group" transform="scale(20)">
                <path d="M27.7962368,66.4506094 C-10.693394,55.6177154 17.9269534,6.61030587 48.8350901,26.767692 L27.7962368,66.4506094 L27.7962368,66.4506094 Z" id="Shape" fill="#6AD7E5"></path>
                <path d="M198.948119,22.8256403 C229.41389,1.40837761 256.944601,49.7296271 221.537486,61.8875638 L198.948119,22.8256403 L198.948119,22.8256403 Z" id="Shape" fill="#6AD7E5"></path>
                <path d="M29.7062751,52.8460648 C24.6283274,50.1576467 20.9030096,46.5064324 24.0091433,40.6280732 C26.8848384,35.1860709 32.2270564,35.7770374 37.3056424,38.4654555 L29.7062751,52.8460648 L29.7062751,52.8460648 Z" id="Shape" fill="#000000"></path>
                <path d="M213.808246,47.4036047 C218.886194,44.7151866 222.611512,41.0639723 219.505378,35.1856131 C216.629683,29.7436108 211.287465,30.3345772 206.208879,33.0229954 L213.808246,47.4036047 L213.808246,47.4036047 Z" id="Shape" fill="#000000"></path>
                <path d="M233.64397,30.512207 C240.397429,42.2867025 236.169024,55.2774852 221.050341,60.4688706 L222.835992,61.1366426 L200.246625,22.0747192 L199.810777,24.0527595 C212.855368,14.8824867 226.851975,18.6705242 233.64397,30.512207 Z M196.96232,22.3880828 L197.649613,23.5765615 L220.23898,62.6384849 L220.857008,63.7071898 L222.02463,63.3062569 C238.989296,57.4810061 243.906308,42.374641 236.246299,29.0195976 C228.605851,15.6986566 212.628805,11.3746337 198.085461,21.5985211 L196.96232,22.3880828 Z" id="Shape" fill="#000000"></path>
                <path d="M13.6003061,35.7206178 C20.3237064,23.712761 34.7614327,19.3800685 48.0156911,28.0241097 L47.5098262,26.0650715 L26.4709729,65.7479889 L28.2026223,65.0067082 C11.774369,60.3829816 6.87597447,47.7301379 13.6003061,35.7206178 Z M28.5546802,68.2223514 L29.1215007,67.1532299 L50.160354,27.4703126 L50.8021614,26.2597528 L49.6544891,25.5112744 C34.8847339,15.8788704 18.5224571,20.7891114 10.9826952,34.2549735 C3.32684259,47.9281712 9.05927136,62.7353749 27.3898512,67.8945106 L28.5546802,68.2223514 Z" id="Shape" fill="#000000"></path>
                <path d="M4.3612324,185.706428 C4.84891965,195.769468 14.8931066,191.113292 19.4425137,187.967433 C23.7608438,184.980657 25.0234686,187.463355 25.4026391,181.569024 C25.650951,177.694839 26.0971466,173.820655 25.8775596,169.931138 C19.3474019,169.338893 12.2446584,170.895212 6.89095041,174.787923 C4.13334713,176.793376 -1.03715902,183.194341 4.3612324,185.706428" id="Shape" fill="#F6D2A2"></path>
                <path d="M4.72278505,185.669316 C6.18457012,185.124988 7.73380697,184.738464 8.72577814,183.415338" id="Shape" stroke="#000000" stroke-width="3" fill="#C6B198"></path>
                <path d="M10.5210754,193.283498 C13.5561091,192.994173 17.2106369,191.334439 20.2956444,189.201195 C20.9800287,188.72784 21.6068158,188.385328 22.2499897,188.110349 C22.4976753,188.004456 22.7400322,187.911357 23.0357978,187.80599 C23.0791988,187.790529 23.6265203,187.599607 23.7818347,187.542397 C25.9755856,186.734325 26.6558062,185.45432 26.8995451,181.665317 C26.9464658,180.933256 26.9891499,180.347478 27.0898068,179.019221 C27.4342435,174.474071 27.5212097,172.433286 27.3751749,169.846588 L27.302211,168.554188 L26.0130441,168.437269 C18.8528239,167.787882 11.4724827,169.602066 6.00882536,173.574723 C4.18336813,174.902277 2.17310068,177.25224 1.19695486,179.447803 C-0.221552469,182.638333 0.461577819,185.546217 3.72838634,187.066393 L4.99407846,184.346462 C3.3862522,183.598277 3.12646085,182.492422 3.93823193,180.666573 C4.6877912,178.980652 6.35342911,177.033554 7.77318578,176.001044 C12.6228347,172.474836 19.2784575,170.838797 25.7420751,171.425006 L24.3799444,170.015687 C24.5160516,172.426538 24.432853,174.378911 24.098384,178.792528 C23.9968469,180.132401 23.9536018,180.725877 23.9057106,181.47308 C23.7302204,184.201133 23.6223687,184.404083 22.7448901,184.727304 C22.6185732,184.773833 22.0939825,184.956826 22.0290246,184.979967 C21.6794984,185.104486 21.3820063,185.218764 21.070651,185.351879 C20.2463377,185.7043 19.4428395,186.143378 18.5892466,186.733766 C15.8880583,188.601604 12.6646145,190.065557 10.2363808,190.297037 C7.46796465,190.560946 6.03872063,189.332431 5.85947398,185.633818 L2.86299081,185.779037 C3.12533871,191.192379 6.05359279,193.709376 10.5210754,193.283498 Z" id="Shape" fill="#000000"></path>
                <path d="M4.72278505,185.669316 C6.18457012,185.124988 7.73380697,184.738464 8.72577814,183.415338" id="Shape" stroke="#000000" stroke-width="3" fill="#C6B198"></path>
                <path d="M205.877235,309.498997 C213.61576,314.291256 227.760605,328.781753 216.151861,335.808184 C204.997611,346.029668 198.754704,324.588766 188.964574,321.617962 C193.18077,315.887185 198.524903,310.661764 205.877235,309.498997 L205.877235,309.498997 Z" id="Shape" fill="#F6D2A2"></path>
                <path d="M216.982695,322.58612 C220.120027,327.827926 219.812777,331.838974 215.37515,334.524939 L215.248014,334.60189 L215.138449,334.702293 C210.494581,338.957821 207.323966,337.573081 201.170648,330.424395 C200.979502,330.202328 200.7796,329.968759 200.540659,329.688544 C200.392631,329.514946 200.224152,329.317033 199.905947,328.943193 C195.209681,323.428252 192.807329,321.216502 189.400135,320.182592 L190.17281,322.506875 C195.092091,315.820445 200.078347,311.93473 206.111547,310.980584 L205.087496,310.774266 C209.392777,313.440411 214.362279,318.207967 216.982695,322.58612 Z M206.193268,307.930374 L205.642924,308.017411 C198.679329,309.118699 193.098624,313.467659 187.756338,320.729049 L186.499441,322.437461 L188.529012,323.053332 C191.162458,323.852448 193.329537,325.847592 197.621881,330.888197 C197.939457,331.261299 198.108921,331.460368 198.257892,331.635073 C198.499612,331.918547 198.702385,332.155472 198.896949,332.381508 C202.202125,336.221334 204.341464,338.201012 206.871552,339.306007 C210.285473,340.797008 213.716196,340.074726 217.165273,336.914076 L216.928572,337.09143 C223.00275,333.414909 223.451777,327.553015 219.556852,321.045433 C216.673782,316.228442 211.358223,311.128891 206.666975,308.223728 L206.193268,307.930374 Z" id="Shape" fill="#000000"></path>
                <path d="M215.925451,332.120961 C215.89318,332.034208 215.89318,332.034208 215.860834,331.947221 C214.450026,328.153415 213.603079,326.490542 211.786121,324.744747 L209.707587,326.908008 C211.091468,328.237688 211.792447,329.613971 213.048964,332.992874 C213.081312,333.079864 213.081312,333.079864 213.113764,333.167104 C213.738532,334.846274 214.087714,335.706581 214.578317,336.682984 L217.258957,335.336072 C216.832491,334.487316 216.513282,333.700856 215.925451,332.120961 Z" id="Shape" fill="#000000"></path>
                <path d="M66.9346229,325.784068 C57.8517671,327.190887 52.7393493,335.392224 45.1674303,339.5571 C38.0321319,343.815253 35.3026153,338.193724 34.6598128,337.05268 C33.5414515,336.542213 33.6352866,337.528009 31.9092312,335.788331 C25.2948134,325.340044 38.8013244,317.702841 45.8344895,312.512559 C55.6303644,310.530745 61.7692234,319.03044 66.9346229,325.784068 L66.9346229,325.784068 Z" id="Shape" fill="#F6D2A2"></path>
                <path d="M52.1620433,332.472002 C52.0641864,332.555653 52.0641864,332.555653 51.9664278,332.639224 C48.3761319,335.708395 46.6817835,337.012204 44.4445095,338.242799 C40.896649,340.358986 38.7268594,339.942874 37.0814682,338.018321 C36.8328768,337.727553 36.6093887,337.413817 36.3985365,337.071925 C36.3170127,336.939736 36.2405067,336.808619 36.157873,336.661204 C36.120385,336.594327 35.993808,336.364562 35.9667036,336.316449 L35.7269796,335.890912 L35.2826615,335.688107 C34.7127981,335.427997 34.3042239,335.369241 33.7460512,335.386542 C33.6226811,335.335824 33.3651345,335.126017 32.9740521,334.731848 L33.176615,334.985998 C29.5104357,329.194817 32.3430682,324.25643 40.8267558,317.946448 C42.014686,317.062892 46.0389564,314.225899 46.725172,313.719491 L46.13193,313.982773 C52.5279686,312.688783 57.2677844,315.840319 63.4746213,323.745953 C63.8257356,324.193166 64.1870438,324.660278 64.6216869,325.227531 C64.8570699,325.534729 65.6467,326.569221 65.7431593,326.695339 L66.7050295,324.301743 C61.651728,325.084436 58.418612,327.12405 52.1620433,332.472002 Z M69.6610103,326.879671 L68.1260864,324.872797 C68.0311893,324.748722 67.2404364,323.712758 67.0030131,323.402898 C66.5617708,322.827033 66.1936356,322.351094 65.8342624,321.893362 C58.9908118,313.176874 53.3908637,309.453431 45.5370489,311.042345 L45.2112569,311.108256 L44.9438069,311.305627 C44.2941589,311.785049 40.2637412,314.626376 39.0363554,315.539279 C34.8258531,318.670958 32.0195277,321.373897 30.3000871,324.371555 C28.0321237,328.325502 28.0121049,332.436662 30.6418475,336.590664 L30.729281,336.728776 L30.8444104,336.844814 C31.9931153,338.002585 32.7474196,338.405219 33.7323584,338.387895 C33.9754999,338.380871 33.9488632,338.37704 34.0369642,338.417253 L34.6598128,337.05268 L33.3529221,337.788911 C33.3711647,337.821294 33.4956757,338.047308 33.5409702,338.128112 C33.6426163,338.309444 33.7395139,338.475509 33.845086,338.646692 C34.1323593,339.112499 34.4439499,339.549915 34.8012266,339.967808 C37.3752477,342.978544 41.1486607,343.702193 45.9361154,340.845169 C48.3664762,339.509427 50.1707127,338.121058 53.9157885,334.919574 C54.0136003,334.835956 54.0136003,334.835956 54.1113015,334.752439 C59.9574681,329.755288 62.8414301,327.935938 67.1642162,327.266393 L69.6610103,326.879671 Z" id="Shape" fill="#000000"></path>
                <path d="M34.6734206,337.656294 C35.0193977,333.674139 38.1740448,331.007443 39.6766833,327.640531" id="Shape" stroke="#000000" stroke-width="3"></path>
                <path d="M248.658883,184.799351 C248.171196,194.862392 238.127009,190.206215 233.577602,187.060357 C229.259272,184.07358 227.996647,186.556278 227.617477,180.661947 C227.369165,176.787763 226.922969,172.913578 227.142556,169.024061 C233.672714,168.431817 240.775457,169.988135 246.129165,173.880847 C248.88613,175.886299 254.057275,182.287265 248.658883,184.799351" id="Shape" fill="#F6D2A2"></path>
                <path d="M242.783735,189.38996 C240.355501,189.158481 237.132057,187.694527 234.430733,185.826595 C233.577276,185.236301 232.773778,184.797224 231.949465,184.444802 C231.638109,184.311687 231.340617,184.197409 230.991091,184.07289 C230.926133,184.049749 230.401542,183.866757 230.275226,183.820228 C229.397747,183.497007 229.289895,183.294057 229.114383,180.565654 C229.066514,179.818801 229.023269,179.225325 228.921732,177.885451 C228.587263,173.471834 228.504064,171.519461 228.640171,169.10861 L227.278041,170.51793 C233.741658,169.93172 240.397281,171.567759 245.24704,175.094047 C246.666482,176.126568 248.33207,178.073681 249.081663,179.759538 C249.893523,181.585436 249.633802,182.691229 248.026037,183.439386 L249.291729,186.159316 C252.55856,184.63913 253.241543,181.731248 251.822903,178.540684 C250.846755,176.345299 248.83665,173.995437 247.011534,172.667824 C241.547633,168.69499 234.167292,166.880805 227.007072,167.530192 L225.717905,167.647111 L225.644941,168.939511 C225.498906,171.526209 225.585872,173.566994 225.930309,178.112145 C226.030966,179.440401 226.07365,180.026179 226.120548,180.757891 C226.36431,184.547243 227.04453,185.827248 229.238281,186.63532 C229.393595,186.69253 229.940917,186.883452 229.984318,186.898914 C230.280083,187.004281 230.52244,187.097379 230.770126,187.203273 C231.4133,187.478251 232.040087,187.820764 232.724335,188.294024 C235.809479,190.427363 239.464007,192.087096 242.49904,192.376421 C246.966523,192.802299 249.894777,190.285302 250.157125,184.871961 L247.160642,184.726741 C246.981395,188.425354 245.552151,189.653869 242.783735,189.38996 Z" id="Shape" fill="#000000"></path>
                <path d="M248.330863,184.762239 C246.869078,184.217911 245.319841,183.831387 244.32787,182.508261" id="Shape" stroke="#000000" stroke-width="3" fill="#C6B198"></path>
                <path d="M122.791377,2 C161.324414,2 197.446464,7.51547383 216.276681,44.5681114 C233.178491,86.0993162 227.167938,130.883711 229.745531,174.776227 C231.959273,212.465191 236.867424,256.00696 219.398135,290.932757 C201.020497,327.677453 155.098742,336.920807 117.26468,335.567015 C87.5470367,334.502636 51.6477657,324.799287 34.8755374,297.624414 C15.1982507,265.74417 24.5140985,218.340356 25.9433285,182.867036 C27.6361905,140.847086 14.5714066,98.6993596 28.3638914,57.5815119 C42.67215,14.9277902 81.2607226,5.28832894 122.791377,2 L122.791377,2 Z" id="Shape" fill="#6AD7E5"></path>
                <path d="M130.038516,53.8364219 C136.95678,94.0879449 202.694979,83.4454379 193.252741,42.8495572 C184.785877,6.44602441 127.739236,16.5224814 130.038516,53.8364219" id="Shape" fill="#FFFFFF"></path>
                <path d="M168.021346,80.0947836 C187.02829,76.9067222 199.189352,61.9549721 194.668987,42.520151 C185.799096,4.38379088 126.177907,14.8262592 128.587218,53.9258507 L131.489813,53.7469932 C129.295389,18.1346974 183.791635,8.58984712 191.836492,43.1789533 C195.945533,60.8453294 185.004152,74.2975095 167.540287,77.2267482 C150.095818,80.1527336 134.490961,71.157497 131.471553,53.5901175 L128.605478,54.0827264 C131.918985,73.3612143 149.104675,83.2677036 168.021346,80.0947836 Z" id="Shape" fill="#000000"></path>
                <path d="M50.8399616,60.5672311 C59.8066406,95.6099439 115.863226,86.638115 113.75034,51.4867922 C111.218707,9.38762068 42.2671347,17.5110134 50.8399616,60.5672311" id="Shape" fill="#FFFFFF"></path>
                <path d="M115.158498,51.4021502 C113.94886,31.2867729 97.3664075,20.1614671 77.948473,22.6948961 C58.4054414,25.2446462 45.3825739,40.3821977 49.4564195,60.8427051 L52.2235036,60.2917572 C48.4926804,41.554048 60.2870633,27.8444655 78.3134834,25.4925854 C96.2231849,23.1559333 111.239239,33.2303293 112.342183,51.5714716 C114.365996,85.2409176 60.6935453,93.385275 52.2066304,60.2175299 L49.4732928,60.9169324 C58.8050274,97.3863203 117.388194,88.4968018 115.158498,51.4021502 Z" id="Shape" fill="#000000"></path>
                <path d="M137.823115,102.89689 C137.852478,108.129978 139.011054,114.005143 138.022275,119.572366 C136.687518,122.09723 134.069072,122.364283 131.811923,123.384579 C128.690469,122.894556 126.065639,120.843104 124.813866,117.920854 C124.012757,111.566528 125.112606,105.414088 125.314958,99.0572057 L137.823115,102.89689 L137.823115,102.89689 Z" id="Shape" fill="#FFFFFF"></path>
                <path d="M136.625938,108.609803 C136.827044,111.282786 136.902676,112.580895 136.918606,114.109565 C136.938753,116.042958 136.825168,117.734785 136.545388,119.31006 L136.696173,118.871329 C136.090343,120.017333 135.303397,120.495389 133.044537,121.300139 C132.937598,121.338229 132.937598,121.338229 132.829414,121.376833 C132.104509,121.635791 131.665033,121.804848 131.194071,122.017736 L132.044552,121.902727 C129.435494,121.493143 127.242172,119.780226 126.192689,117.330222 L126.302085,117.73323 C125.962408,115.038942 125.949593,112.294293 126.181339,108.644029 C126.240904,107.705819 126.295511,106.973985 126.431076,105.240663 C126.667005,102.224086 126.759065,100.836944 126.814199,99.1049294 L124.87477,100.491163 L137.382926,104.330848 L136.323138,102.905307 C136.331799,104.448774 136.40166,105.628827 136.625938,108.609803 Z M139.316907,101.786362 L138.263303,101.462933 L125.755147,97.6232481 L123.878185,97.0470689 L123.815718,99.0094819 C123.762534,100.680229 123.672567,102.035826 123.440209,105.006745 C123.303488,106.754858 123.248178,107.496107 123.187367,108.453949 C122.944679,112.276556 122.958305,115.194757 123.325646,118.108479 L123.35202,118.317671 L123.435043,118.511487 C124.890099,121.908297 127.947914,124.296356 131.579293,124.86643 L132.021702,124.935882 L132.429774,124.751422 C132.807005,124.580903 133.185546,124.435286 133.838643,124.20198 C133.944417,124.164236 133.944417,124.164236 134.051342,124.126151 C136.976781,123.083924 138.281663,122.291231 139.348377,120.273403 L139.458105,120.065838 L139.499162,119.834672 C139.814667,118.058252 139.940401,116.185469 139.918443,114.078304 C139.901626,112.46452 139.823341,111.120871 139.617483,108.384729 C139.398666,105.476338 139.331219,104.337067 139.323091,102.888474 L139.316907,101.786362 Z" id="Shape" fill="#000000"></path>
                <ellipse id="Oval" fill="#000000" cx="66.2375327" cy="55.1128352" rx="9.46585625" ry="10.261733"></ellipse>
                <ellipse id="Oval" fill="#FFFFFF" cx="70.5430962" cy="57.4287847" rx="2.23161599" ry="2.60791893"></ellipse>
                <ellipse id="Oval" fill="#000000" cx="145.355968" cy="52.3916051" rx="9.30818773" ry="10.261733"></ellipse>
                <ellipse id="Oval" fill="#FFFFFF" cx="149.590038" cy="54.7075547" rx="2.19459261" ry="2.60791893"></ellipse>
                <path d="M110.354455,101.739372 C106.224433,111.757051 112.657564,131.789217 123.863519,117.013778 C123.06241,110.659451 124.162259,104.507011 124.364611,98.150129 L110.354455,101.739372 L110.354455,101.739372 Z" id="Shape" fill="#FFFFFF"></path>
                <path d="M110.051934,119.411696 C113.503995,125.523381 119.383508,125.403104 125.058673,117.920204 L125.428236,117.432922 L125.351738,116.826153 C125.012061,114.131865 124.999246,111.387217 125.230993,107.736952 C125.290557,106.798742 125.345164,106.066908 125.480729,104.333587 C125.716658,101.317009 125.808719,99.9298674 125.863852,98.1978527 L125.927406,96.2013166 L123.99235,96.6970557 L109.982194,100.286298 L109.254145,100.472816 L108.967686,101.167644 C106.765636,106.508882 107.282418,114.508419 110.051934,119.411696 Z M110.726715,103.192445 L124.736872,99.6032022 L122.865371,98.1024052 C122.812188,99.7731519 122.72222,101.128749 122.489862,104.099668 C122.353141,105.847781 122.297831,106.58903 122.23702,107.546872 C121.994332,111.369479 122.007958,114.287681 122.3753,117.201402 L122.668365,116.107352 C118.219476,121.973366 114.981727,122.0396 112.664057,117.936292 C110.34588,113.832087 109.891458,106.797846 111.741223,102.311099 L110.726715,103.192445 Z" id="Shape" fill="#000000"></path>
                <path d="M111.785398,82.8676838 C104.087727,83.5244552 97.7956676,92.6847545 101.798022,99.9316003 C107.09811,109.530173 118.928356,99.0825252 126.296646,100.061293 C134.776915,100.23507 141.725181,109.035678 148.536206,101.652111 C156.111317,93.4399138 145.274957,85.441742 136.805541,81.8659159 L111.785398,82.8676838 L111.785398,82.8676838 Z" id="Shape" fill="#F6D2A2"></path>
                <path d="M100.48497,100.656785 C102.20504,103.771868 104.703753,105.321054 107.876337,105.501318 C110.228773,105.634982 112.595844,105.100779 116.334919,103.833227 C116.67666,103.717376 117.001088,103.6058 117.523448,103.425031 C122.333519,101.760446 124.208005,101.297024 126.099129,101.548232 L126.265915,101.560979 C128.499708,101.606753 130.444861,102.196757 134.066422,103.712206 C138.209527,105.445895 139.547061,105.907755 141.666458,106.068347 C144.646724,106.294169 147.262871,105.244762 149.638752,102.669162 C153.658748,98.3110745 153.455572,93.5114963 149.851902,89.0746816 C147.114102,85.7039214 142.453723,82.6223911 137.388978,80.4840328 L137.080312,80.3537126 L136.745531,80.3671167 L111.725388,81.3688847 C102.606733,82.1453649 96.0736293,92.669411 100.48497,100.656785 Z M136.86555,83.364715 L136.222103,83.247799 C140.872877,85.2113767 145.141827,88.034087 147.523241,90.966067 C150.240481,94.3115151 150.373264,97.4482278 147.433641,100.635081 C144.321337,104.009009 142.155114,103.844869 135.224477,100.944732 C131.269107,99.2896007 129.053178,98.6174649 126.327378,98.5616083 L126.494164,98.5743547 C123.940218,98.2351007 121.863725,98.7484638 116.542348,100.589993 C116.025545,100.768839 115.706003,100.878734 115.371754,100.992045 C108.410935,103.351773 105.302512,103.175155 103.111139,99.2065308 C99.802799,93.2163004 104.929314,84.9581002 111.912915,84.3622537 L136.86555,83.364715 Z" id="Shape" fill="#231F20"></path>
                <path d="M110.816406,82.4664655 C110.246374,69.1195683 135.671859,67.4508069 138.674583,78.6229476 C141.669646,89.7688941 112.06818,92.3576466 110.816406,82.4664655 C109.817414,74.5679595 110.816406,82.4664655 110.816406,82.4664655 L110.816406,82.4664655 Z" id="Shape" fill="#000000"></path>
                <path d="M176.400844,10.7956538 C193.490047,17.1356502 206.2489,28.1470897 214.939456,45.2476916 C220.537726,59.0177125 223.901628,73.9206274 225.648778,91.1236406 C226.9768,104.199792 227.285567,114.795245 227.414037,138.769455 C227.434423,142.57364 227.444454,144.260268 227.460755,146.372628 C227.551859,158.178313 227.759921,166.551028 228.24811,174.864163 C228.440145,178.133557 228.523169,179.440811 229.024599,187.208695 C230.099388,203.858745 230.522854,212.487104 230.595172,222.43952 C230.797636,250.302461 227.256618,271.868421 218.056592,290.26174 C209.648165,307.073754 194.900828,318.927006 175.114621,326.127249 C158.212242,332.278061 138.120312,334.812319 117.31832,334.067974 C81.5695802,332.787584 50.6554504,320.335535 36.1519917,296.836591 C26.4810154,281.168116 23.2447442,261.191734 24.1377656,233.667762 C24.3825564,226.123022 24.8296243,219.362617 25.8004151,207.111374 C26.9022013,193.206987 27.1905793,189.170446 27.4421125,182.927423 C27.6224619,178.450818 27.643482,173.818662 27.5199983,168.912292 C27.3035696,160.312945 26.8235339,153.405309 25.5272179,138.040508 C23.8149943,117.746093 23.2912857,108.828008 23.5030657,97.6975761 C23.7816545,83.0558911 25.7053022,70.2238788 29.7860159,58.0585463 C36.3905237,38.370138 48.4820411,24.9795421 66.0296106,16.3755466 C80.7170383,9.17394747 98.5952103,5.42050727 122.909774,3.49532008 C145.50332,3.5 162.135739,5.50338163 176.400844,10.7956538 Z M64.708861,13.6819207 C46.4555835,22.6319418 33.8066685,36.6398206 26.9417727,57.1044599 C22.7558113,69.5835548 20.7876445,82.7125388 20.5036086,97.6405051 C20.2892013,108.909021 20.8168919,117.894914 22.5378385,138.292719 C23.8292001,153.598797 24.3064977,160.467033 24.520948,168.987772 C24.6428535,173.831438 24.6221279,178.398702 24.4445443,182.806655 C24.1952187,188.994887 23.9080482,193.014525 22.8097894,206.874396 C21.8354864,219.169964 21.3860822,225.965697 21.1393434,233.570477 C20.2289097,261.631116 23.5500248,282.13121 33.5990997,298.412263 C48.7329438,322.932577 80.5627263,335.753445 117.21099,337.066054 C138.373071,337.823283 158.8415,335.241537 176.140512,328.946389 C196.603807,321.499751 211.96079,309.156494 220.739699,291.603732 C230.188053,272.713936 233.80069,250.711796 233.595093,222.417721 C233.522233,212.390771 233.096718,203.720651 232.018368,187.015442 C231.517406,179.254807 231.434492,177.949285 231.24295,174.688272 C230.758358,166.436398 230.55141,158.108502 230.460666,146.349478 C230.444389,144.240263 230.434367,142.555204 230.413994,138.753379 C230.285008,114.682948 229.974396,104.024171 228.633424,90.8205179 C226.859232,73.3512238 223.433573,58.1747154 217.666034,44.0026914 C208.573674,26.0998652 195.225248,14.5795981 177.44433,7.98297944 C162.776811,2.54141402 145.82864,0.5 122.791377,0.5 C98.0145064,2.45709732 79.8043613,6.28023376 64.708861,13.6819207 Z" id="Shape" fill="#000000"></path>
            </g>
        </g>
    </g>
</svg>
