<svg xmlns="http://www.w3.org/2000/svg" xmlns:xlink="http://www.w3.org/1999/xlink" viewBox="0 0 253 343" version="1.1">
  <title>
    Gopher
  </title>
  <g id="Page-1" stroke="black" stroke-width="1" fill="none">
    <g id="Artboard-3" transform="translate(-173.000000, -107.000000)">
      <g id="Group" transform="translate(173.000000, 107.000000)">
        <path d="M29.71 52.85C24.63 50.16 20.9 46.51 24.01 40.63 26.88 35.19 32.23 35.78 37.31 38.47L29.71 52.85 29.71 52.85Z" id="Shape" fill="none" stroke="black"/>
        <path d="M213.81 47.4C218.89 44.72 222.61 41.06 219.51 35.19 216.63 29.74 211.29 30.33 206.21 33.02L213.81 47.4 213.81 47.4Z" id="Shape" fill="none" stroke="black"/>
        <path d="M233.64 30.51C240.4 42.29 236.17 55.28 221.05 60.47L222.84 61.14 200.25 22.07 199.81 24.05C212.86 14.88 226.85 18.67 233.64 30.51Z" id="Shape" fill="none" stroke="black"/>
        <path d="M13.6 35.72C20.32 23.71 34.76 19.38 48.02 28.02L47.51 26.07 26.47 65.75 28.2 65.01C11.77 60.38 6.88 47.73 13.6 35.72Z" id="Shape" fill="none" stroke="black"/>
        <path d="M10.52 193.28C13.56 192.99 17.21 191.33 20.3 189.2 20.98 188.73 21.61 188.39 22.25 188.11 22.5 188 22.74 187.91 23.04 187.81 23.08 187.79 23.63 187.6 23.78 187.54 25.98 186.73 26.66 185.45 26.9 181.67 26.95 180.93 26.99 180.35 27.09 179.02 27.43 174.47 27.52 172.43 27.38 169.85L2.86 185.78C3.13 191.19 6.05 193.71 10.52 193.28Z" id="Shape" fill="none" stroke="black"/>


 <path d="M216.98 322.59C220.12 327.83 219.81 331.84 215.38 334.52L190.17 322.51C195.09 315.82 200.08 311.93 206.11 310.98Z" id="Shape" fill="none" stroke="black"/>






        <path d="M52.16 332.47C52.06 332.56 52.06 332.56 51.97 332.64 48.38 335.71 46.68 337.01 44.44 338.24 40.9 340.36 38.73 339.94 37.08 338.02 36.83 337.73 36.61 337.41 36.4 337.07 36.32 336.94 36.24 336.81 36.16 336.66 36.12 336.59 35.99 336.36 35.97 336.32L46.13 313.98C52.53 312.69 57.27 315.84 63.47 323.75 63.83 324.19 64.19 324.66 64.62 325.23 64.86 325.53 65.65 326.57 65.74 326.7Z" id="Shape" fill="none" stroke="black"/>







<path d="M242.78 189.39C240.36 189.16 237.13 187.69 234.43 185.83 233.58 185.24 232.77 184.8 231.95 184.44 231.64 184.31 231.34 184.2 230.99 184.07 230.93 184.05 230.4 183.87 230.28 183.82 229.4 183.5 229.29 183.29 229.11 180.57 229.07 179.82 229.02 179.23 228.92 177.89 228.59 173.47 228.5 171.52 228.64 169.11L247.16 184.73C246.98 188.43 245.55 189.65 242.78 189.39Z" id="Shape" fill="none" stroke="black"/>
        <path d="M168.02 80.09C187.03 76.91 199.19 61.95 194.67 42.52 185.8 4.38 126.18 14.83 128.59 53.93L128.61 54.08C131.92 73.36 149.1 83.27 168.02 80.09Z" id="Shape" fill="none" stroke="black"/>
        <path d="M115.16 51.4C113.95 31.29 97.37 20.16 77.95 22.69 58.41 25.24 45.38 40.38 49.46 60.84L49.47 60.92C58.81 97.39 117.39 88.5 115.16 51.4Z" id="Shape" fill="none" stroke="black"/>
        <path d="M136.63 108.61C136.83 111.28 136.9 112.58 136.92 114.11 136.94 116.04 136.83 117.73 136.55 119.31L136.7 118.87C136.09 120.02 135.3 120.5 133.04 121.3 132.94 121.34 132.94 121.34 132.83 121.38 132.1 121.64 131.67 121.8 131.19 122.02L132.04 121.9C129.44 121.49 127.24 119.78 126.19 117.33L126.3 117.73C125.96 115.04 125.95 112.29 126.18 108.64 126.24 107.71 126.3 106.97 126.43 105.24 126.67 102.22 126.76 100.84 126.81 99.1L124.87 100.49 137.38 104.33 136.32 102.91C136.33 104.45 136.4 105.63 136.63 108.61Z" id="Shape" fill="none" stroke="black"/>
<path d="M56.769999999999996,55.11a9.47,10.26 0 1,0 18.94,0a9.47,10.26 0 1,0 -18.94,0Z" id="Shape" fill="none" stroke="black"/>
<path d="M68.31,57.43a2.23,2.61 0 1,0 4.46,0a2.23,2.61 0 1,0 -4.46,0Z" id="Shape" fill="none" stroke="black"/>
<path d="M136.05,52.39a9.31,10.26 0 1,0 18.62,0a9.31,10.26 0 1,0 -18.62,0Z" id="Shape" fill="none" stroke="black"/>
<path d="M147.4,54.71a2.19,2.61 0 1,0 4.38,0a2.19,2.61 0 1,0 -4.38,0Z" id="Shape" fill="none" stroke="black"/>
        <path d="M110.05 119.41C113.5 125.52 119.38 125.4 125.06 117.92L125.43 117.43 125.35 116.83C125.01 114.13 125 111.39 125.23 107.74 125.29 106.8 125.35 106.07 125.48 104.33 125.72 101.32 125.81 99.93 125.86 98.2L125.93 96.2 123.99 96.7 109.98 100.29 109.25 100.47 108.97 101.17C106.77 106.51 107.28 114.51 110.05 119.41Z" id="Shape" fill="none" stroke="black"/>
        <path d="M100.48 100.66C102.21 103.77 104.7 105.32 107.88 105.5 110.23 105.63 112.6 105.1 116.33 103.83 116.68 103.72 117 103.61 117.52 103.43 122.33 101.76 124.21 101.3 126.1 101.55L126.27 101.56C128.5 101.61 130.44 102.2 134.07 103.71 138.21 105.45 139.55 105.91 141.67 106.07 144.65 106.29 147.26 105.24 149.64 102.67 153.66 98.31 153.46 93.51 149.85 89.07 147.11 85.7 142.45 82.62 137.39 80.48L137.08 80.35 136.75 80.37 111.73 81.37C102.61 82.15 96.07 92.67 100.48 100.66Z" id="Shape" fill="none" stroke="black"/>
        <path d="M110.82 82.47C110.25 69.12 135.67 67.45 138.67 78.62 141.67 89.77 112.07 92.36 110.82 82.47 109.82 74.57 110.82 82.47 110.82 82.47L110.82 82.47Z" id="Shape" fill="none" stroke="black"/>
        <path d="M176.4 10.8C193.49 17.14 206.25 28.15 214.94 45.25 220.54 59.02 223.9 73.92 225.65 91.12 226.98 104.2 227.29 114.8 227.41 138.77 227.43 142.57 227.44 144.26 227.46 146.37 227.55 158.18 227.76 166.55 228.25 174.86 228.44 178.13 228.52 179.44 229.02 187.21 230.1 203.86 230.52 212.49 230.6 222.44 230.8 250.3 227.26 271.87 218.06 290.26 209.65 307.07 194.9 318.93 175.11 326.13 158.21 332.28 138.12 334.81 117.32 334.07 81.57 332.79 50.66 320.34 36.15 296.84 26.48 281.17 23.24 261.19 24.14 233.67 24.38 226.12 24.83 219.36 25.8 207.11 26.9 193.21 27.19 189.17 27.44 182.93 27.62 178.45 27.64 173.82 27.52 168.91 27.3 160.31 26.82 153.41 25.53 138.04 23.81 117.75 23.29 108.83 23.5 97.7 23.78 83.06 25.71 70.22 29.79 58.06 36.39 38.37 48.48 24.98 66.03 16.38 80.72 9.17 98.6 5.42 122.91 3.5 145.5 3.5 162.14 5.5 176.4 10.8Z" id="Shape" fill="none" stroke="black"/>


</g>
    </g>
  </g>
</svg>
